HIERARCHY
ROOT Hips
{
  OFFSET 267.745 86.9975 -272.335
  CHANNELS 6 Xposition Yposition Zposition Zrotation Xrotation Yrotation
  JOINT LeftUpLeg
  {
    OFFSET 8.64259 1.95398 -2.38835
    CHANNELS 3 Zrotation Xrotation Yrotation
    JOINT LeftLeg
    {
      OFFSET 43.7702 0 0
      CHANNELS 3 Zrotation Xrotation Yrotation
      JOINT LeftFoot
      {
        OFFSET 40.6238 0 0
        CHANNELS 3 Zrotation Xrotation Yrotation
        JOINT LeftToeBase
        {
          OFFSET 12.7242 0 0
          CHANNELS 3 Zrotation Xrotation Yrotation
          End Site
          {
            OFFSET 0 0 0
          }
        }
      }
    }
  }
  JOINT RightUpLeg
  {
    OFFSET -8.2249 1.95398 -2.59336
    CHANNELS 3 Zrotation Xrotation Yrotation
    JOINT RightLeg
    {
      OFFSET 43.5653 0 0
      CHANNELS 3 Zrotation Xrotation Yrotation
      JOINT RightFoot
      {
        OFFSET 40.6238 0 0
        CHANNELS 3 Zrotation Xrotation Yrotation
        JOINT RightToeBase
        {
          OFFSET 12.7242 0 0
          CHANNELS 3 Zrotation Xrotation Yrotation
          End Site
          {
            OFFSET 0 0 0
          }
        }
      }
    }
  }
  JOINT Spine
  {
    OFFSET 0.165834 0.87714 6.61349
    CHANNELS 3 Zrotation Xrotation Yrotation
    JOINT Spine1
    {
      OFFSET 7.38963 1.71661e-005 0
      CHANNELS 3 Zrotation Xrotation Yrotation
      JOINT Spine2
      {
        OFFSET 11.9445 1.14441e-005 0
        CHANNELS 3 Zrotation Xrotation Yrotation
        JOINT Spine3
        {
          OFFSET 14.7254 4.19617e-005 0
          CHANNELS 3 Zrotation Xrotation Yrotation
          JOINT Spine4
          {
            OFFSET 10.9679 0 0
            CHANNELS 3 Zrotation Xrotation Yrotation
            JOINT RightShoulder
            {
              OFFSET 2.46616 -1.6653 3.69651
              CHANNELS 3 Zrotation Xrotation Yrotation
              JOINT RightArm
              {
                OFFSET 13.0012 0 0
                CHANNELS 3 Zrotation Xrotation Yrotation
                JOINT RightForeArm
                {
                  OFFSET 28.7848 1.52588e-005 0
                  CHANNELS 3 Zrotation Xrotation Yrotation
                  JOINT RightHand
                  {
                    OFFSET 26.5688 1.52588e-005 0
                    CHANNELS 3 Zrotation Xrotation Yrotation
                    End Site
                    {
                      OFFSET 0 0 0
                    }
                  }
                }
              }
            }
            JOINT LeftShoulder
            {
              OFFSET 2.38034 -1.29275 -3.7523
              CHANNELS 3 Zrotation Xrotation Yrotation
              JOINT LeftArm
              {
                OFFSET 16.3182 6.10352e-005 0
                CHANNELS 3 Zrotation Xrotation Yrotation
                JOINT LeftForeArm
                {
                  OFFSET 27.0901 0 0
                  CHANNELS 3 Zrotation Xrotation Yrotation
                  JOINT LeftHand
                  {
                    OFFSET 24.5451 1.52588e-005 0
                    CHANNELS 3 Zrotation Xrotation Yrotation
                    End Site
                    {
                      OFFSET 0 0 0
                    }
                  }
                }
              }
            }
            JOINT Neck
            {
              OFFSET 5.0226 -0.0266342 0
              CHANNELS 3 Zrotation Xrotation Yrotation
              JOINT Head
              {
                OFFSET 6.69364 2.86102e-005 0
                CHANNELS 3 Zrotation Xrotation Yrotation
                End Site
                {
                  OFFSET 0 0 0
                }
              }
            }
          }
        }
      }
    }
  }
}
MOTION
Frames:	14
Frame Time:	0.0416667
179.499 98.6567 -186.613 99.0103 53.2275 84.5877 -177.01 6.10412 88.9847 -19.4655 20.9235 2.74442 57.1432 1.53636 15.8321 40.3731 -1.25415 -2.85717 175.905 9.93877 88.923 -27.1852 -7.10433 -0.192581 61.0433 3.99929 12.9073 29.5818 -0.385231 2.25928 0.0084721 8.07875 -90.2491 10.7159 -0.0978571 -0.486238 -0.955132 -0.119179 -0.481469 -23.4896 0.0527912 -0.493178 -3.47691 0.0527874 -0.493171 101.005 -54.0176 -83.8943 28.5145 -7.97853 -7.8881 -0.108723 -13.9974 -17.6961 -13.2995 -0.668629 0.675523 -82.6239 -53.9765 89.9354 -26.9548 4.57832 -24.8835 -0.0779035 27.0665 -9.48817 -0.286304 -0.196575 -10.1894 -27.2025 -11.1118 13.3157 31.4353 -16.0154 -19.0261 
176.69 96.0539 -183.212 98.0351 54.3466 83.1607 179.874 16.1244 86.007 -31.5943 18.2519 2.95877 57.9153 2.48994 16.2586 42.7417 -1.57461 -2.4362 174.837 22.1011 86.3462 -41.8337 -7.00291 0.151094 60.7434 4.70539 15.3247 29.1779 -0.147 0.738541 0.17308 8.66077 -90.14 9.55138 0.28184 -0.29646 -2.11958 0.268525 -0.308583 -24.6547 0.357901 -0.19805 -4.6421 0.357908 -0.198055 100.953 -51.6664 -84.0231 30.9237 -8.25472 -6.73099 -0.132016 -11.2323 -20.5682 -16.1798 -0.781153 0.420132 -83.2752 -53.7836 88.9745 -23.9495 8.1972 -27.7818 2.70126 25.8385 -17.582 2.4695 -0.32397 -9.91141 -10.4893 -10.3729 28.6403 11.2964 -16.9767 -37.175 
173.028 91.6942 -178.691 97.8435 61.1763 80.537 178.23 33.0388 83.1069 -49.2598 20.3193 1.93798 52.4996 -2.76339 8.12076 42.7466 -1.56403 -1.26234 172.59 34.7242 81.7828 -53.9711 -13.3479 1.27506 56.2653 6.19732 10.0574 39.922 -2.64888 5.78309 -0.0135345 9.71406 -90.4412 7.45299 -0.217764 -0.878119 -4.21818 -0.256206 -0.867691 -26.7517 0.0562097 -0.902961 -6.73901 0.0562314 -0.902966 100.064 -47.8567 -85.5357 32.5816 -5.21238 -7.78321 -2.01903 -7.54486 -29.7436 -15.545 -0.749256 0.435831 -85.3926 -56.6403 86.2567 -18.116 9.7639 -34.6718 5.27915 22.51 -26.0951 4.47758 -0.523454 -11.466 24.0793 2.42336 50.7766 -27.2945 -3.13076 -60.8079 
169.934 87.205 -174.166 104.421 63.7484 75.1426 -177.825 43.7962 83.0087 -64.2466 22.6041 0.55455 49.5093 -4.97968 5.79697 40.9801 -1.39771 2.05874 172.892 40.7844 80.9243 -61.597 -15.8216 1.17453 49.7187 10.0019 8.06824 53.4508 -5.03966 7.85196 0.123299 11.0217 -91.0824 4.82106 -0.19739 -2.11748 -6.8516 -0.290365 -2.10676 -29.373 0.447962 -2.07897 -9.36033 0.447966 -2.07896 100.319 -49.9612 -85.0497 24.5862 -0.307248 -19.0525 -5.03168 -6.33122 -40.4005 -13.0203 -0.458121 -1.17043 -88.3402 -55.6283 81.9453 -24.2674 4.49187 -40.0758 1.56712 15.5369 -16.5513 10.7903 -1.13806 -13.4437 42.6701 10.4686 54.3509 -45.7677 7.64548 -68.5368 
166.231 83.3676 -171.153 107.733 60.5929 74.9536 -179.193 46.7905 86.8222 -85.7568 19.0214 2.19413 55.8625 0.215274 7.8054 44.9555 -1.69768 4.26091 173.682 44.7115 83.2636 -66.2926 -16.1722 0.659756 50.6727 9.02105 6.81491 49.0192 -4.3003 7.31622 0.0175457 11.7483 -91.696 3.35599 -0.639339 -3.32036 -8.31896 -0.784794 -3.28905 -30.8202 0.387504 -3.35903 -10.8076 0.387509 -3.35904 99.3964 -47.5491 -86.6225 19.1744 -0.0325766 -28.9695 -7.2784 -3.25933 -57.5277 -13.8409 -0.230583 -3.33789 -92.0233 -56.7105 77.0008 -21.7854 1.45908 -39.8135 -2.57812 16.9372 -5.27488 6.73963 -0.690205 -11.8847 50.5242 17.4739 55.5573 -54.2931 15.1902 -68.5475 
162.214 81.4864 -168.04 113.646 62.7072 71.7011 172.672 39.4822 93.6012 -99.9805 15.7024 3.37896 55.7158 0.842892 9.16663 50.482 -2.06176 4.98171 172.097 44.3977 83.8251 -65.1396 -16.8657 1.57715 54.8487 5.67254 2.33435 41.9147 -3.10696 3.90087 -0.35734 11.6076 -91.8041 3.62107 -1.43538 -3.53116 -8.05372 -1.5893 -3.46469 -30.5508 -0.308644 -3.79892 -10.5382 -0.308646 -3.79892 100.297 -49.1939 -85.1153 20.7123 -2.11645 -18.7021 -5.13218 -2.60931 -52.1703 -13.452 -0.0891372 -4.53904 -91.8931 -55.4543 76.9108 -16.8382 1.24389 -42.6134 -1.3886 12.8261 -13.7303 7.44485 -0.749734 -12.0456 48.6987 15.7118 52.8779 -53.3692 14.18 -65.6404 
156.487 84.7695 -162.26 118.587 68.5131 65.6498 169.856 32.1156 94.9903 -93.9019 14.9501 4.53251 60.948 5.93046 12.1779 45.931 -1.79835 2.81772 173.006 37.8317 78.2171 -44.5637 -13.5592 2.06291 49.0089 10.9187 10.1455 26.7004 0.767249 -1.49123 -0.978135 11.2483 -91.2594 4.3522 -2.46605 -2.45162 -7.31825 -2.57157 -2.34074 -29.8458 -1.61545 -3.079 -9.83317 -1.61544 -3.079 100.707 -54.9323 -84.3062 26.5561 -5.17626 4.97995 1.89566 1.2166 -37.7068 -11.5584 -0.17977 -3.70435 -89.3235 -48.6395 79.1856 -16.864 1.5444 -51.8 8.98559 9.00843 -45.2291 10.346 -1.03897 -12.7766 40.7076 9.06398 47.2251 -42.7499 5.72931 -59.721 
146.174 90.0629 -154.991 105.678 64.178 75.0324 173.52 33.4708 88.4524 -75.0526 23.2741 4.39496 60.3144 2.40803 6.37982 47.3698 -2.15711 -1.45995 174.111 34.4268 75.6159 -24.6847 -11.7008 1.69284 31.4166 18.9139 26.9555 37.6322 -2.18647 -4.93339 -0.495465 11.06 -90.8139 4.73858 -1.32326 -1.5811 -6.93278 -1.39153 -1.52137 -29.461 -0.787066 -1.90559 -9.44837 -0.787049 -1.90558 98.4808 -55.7489 -87.536 30.2442 -4.13941 13.7324 8.08252 8.61722 -36.6209 -14.0935 -0.190381 -3.80549 -88.2061 -47.5203 80.692 -18.1911 1.85338 -54.5958 17.111 7.80598 -61.0859 14.5181 -1.08057 -11.1294 32.3257 5.9495 49.4246 -28.5981 -3.67648 -56.114 
135.183 88.0617 -148.649 108.822 47.1445 77.3438 175.45 27.8971 87.8509 -64.1374 28.5475 5.08049 58.5978 2.335 14.4954 52.4806 -2.58738 0.641104 171.986 40.2181 80.1703 -81.1094 -14.6277 -1.38115 46.6753 11.5534 13.6305 41.4278 -3.12017 0.219511 0.199495 11.402 -90.4247 4.07002 0.227113 -0.832868 -7.60117 0.190224 -0.842069 -30.1348 0.466906 -0.726119 -10.1221 0.46691 -0.726122 100.586 -54.6252 -84.4998 24.7396 -0.383067 -3.53374 4.07991 3.74666 -52.8003 -14.5503 -0.0543928 -4.86991 -87.1963 -50.8639 82.8274 -18.6012 -1.2567 -27.5371 10.6652 10.7502 -41.7497 15.9037 -1.27327 -11.7131 27.2331 4.02106 26.04 -14.5133 -3.53123 -27.9306 
124.38 86.3021 -141.443 104.945 35.2767 81.0043 178.559 30.8867 87.8116 -53.316 23.8759 3.57788 57.0523 2.82932 20.9735 45.8853 -1.85925 0.921765 177.725 37.1566 79.4314 -107.023 -24.6881 -3.31876 49.6882 8.20749 8.36015 50.6525 -4.73532 6.51792 0.454056 10.9344 -89.7953 4.99945 0.991365 0.388531 -6.67125 1.00751 0.344514 -29.2073 0.828771 0.668518 -9.1947 0.828761 0.668506 101.057 -48.7071 -83.9303 26.1379 -9.16558 -16.1693 -14.4575 0.0151197 -86.3819 -14.9334 0.15547 -6.68743 -86.1325 -57.0057 85.2665 -18.3464 1.88796 4.83435 1.43893 11.2429 -24.7007 14.2707 -0.671897 -8.44732 28.4716 3.89149 10.8036 -13.8767 0.543625 -10.8518 
112.128 90.2739 -129.106 98.0241 38.1007 87.094 176.654 35.6287 94.0406 -35.363 21.9049 4.51229 41.2004 -12.1523 -2.6116 44.2343 -1.3396 3.99628 168.898 30.8927 89.8306 -75.8936 -27.5097 1.56228 49.4299 9.76151 11.3052 53.5561 -5.35869 6.00341 0.715172 10.7175 -90.0516 5.44135 1.40715 -0.127615 -6.22887 1.40018 -0.189446 -28.7699 1.38044 0.301272 -8.7573 1.38046 0.301265 100.581 -46.9573 -84.7367 23.7575 -20.9087 -15.116 -20.6867 9.44107 -85.154 -12.6178 -0.0791464 -5.313 -87.0366 -55.8233 83.8266 -21.9993 1.35433 3.39883 0.591377 9.38679 -23.7138 10.9271 -0.917537 -11.4043 23.9727 0.832193 9.14857 -4.46594 -2.38245 -4.712 
99.8821 88.4364 -116.464 105.874 49.5821 79.9006 176.092 37.9482 92.0312 -74.1137 12.2773 3.68502 47.1967 -6.11339 1.05141 53.6637 -1.82714 10.006 166.621 27.848 91.7766 -61.3885 -20.6859 5.15688 56.1152 4.30077 0.785063 49.8695 -4.46134 8.00862 0.143222 11.2265 -90.2846 4.42158 0.170467 -0.563982 -7.24945 0.145482 -0.570944 -29.7842 0.332083 -0.486684 -9.77157 0.332076 -0.486685 100.423 -50.3954 -84.8698 26.3485 -16.4624 -7.46629 -16.8493 -3.89764 -56.9266 -11.5737 -0.0904713 -4.64375 -88.0728 -53.7691 82.0206 -15.1747 1.30111 -24.3879 5.15556 15.994 -26.9392 11.8718 -0.999604 -11.6329 22.702 -0.428232 5.79472 -7.01493 -2.27073 -3.22758 
87.2664 88.6345 -103.989 104.173 55.7217 79.9985 176.91 32.4344 93.9144 -98.4786 13.2357 3.32197 49.6143 -2.6985 9.09736 44.2886 -1.68346 2.47946 167.846 33.9065 90.1688 -47.3968 -15.7737 7.92668 59.2985 2.39429 -0.795197 23.8542 1.0241 1.51902 -0.695589 10.8626 -90.1226 5.1472 -1.44036 -0.213783 -6.52297 -1.4484 -0.150175 -29.0635 -1.30954 -0.63687 -9.05084 -1.30951 -0.636862 101.08 -53.8379 -83.7867 33.2056 -7.27532 10.8854 -11.4909 -9.49301 -46.559 -12.7554 -0.28963 -2.62457 -86.8285 -51.0963 83.4134 -10.9089 -1.55558 -38.9542 10.736 7.40378 -50.1745 11.1341 -1.21388 -13.8352 22.8312 -0.042996 -0.958087 -10.5567 0.0898786 3.34035 
71.693 92.5173 -90.928 94.6982 51.8113 84.5177 179.349 26.6064 89.0194 -74.6167 21.1981 3.17004 53.8828 -2.17459 5.69489 53.1079 -2.39407 3.74019 174.157 34.0153 84.4898 -22.0893 -10.7199 3.39732 29.6839 20.1359 26.2269 35.7976 -1.5552 -4.61829 -0.719289 10.8625 -89.6539 5.15148 -1.2941 0.705424 -6.51914 -1.26182 0.761692 -29.0583 -1.44629 0.283825 -9.04567 -1.4463 0.283818 98.5739 -52.1347 -87.6253 35.34 -12.7599 15.5093 -3.32378 -0.651485 -45.4556 -8.19357 0.102615 -6.88393 -86.283 -48.7953 83.8804 -6.79112 -1.68892 -40.2879 13.901 3.61959 -63.8653 14.4613 -1.20905 -11.917 31.31 0.81128 -3.11085 -15.8991 1.29644 7.43152 
